<?xml version="1.0" encoding="UTF-8"?>
<svg id="Layer_2" data-name="Layer 2" xmlns="http://www.w3.org/2000/svg" viewBox="0 0 401.35 76.52">
  <defs>
    <style>
      .cls-1 {
        fill: #f15a29;
      }

      .cls-2 {
        fill: #00aeef;
      }
    </style>
  </defs>
  <g id="Layer_1-2" data-name="Layer 1">
    <g>
      <path class="cls-2" d="m44.98,58.65V10.35h23.6c6.07,0,10.64,1.15,13.7,3.45,3.06,2.3,4.59,5.34,4.59,9.11,0,2.53-.62,4.73-1.86,6.59-1.24,1.86-2.94,3.3-5.11,4.31-2.16,1.01-4.65,1.52-7.45,1.52l1.31-2.83c3.04,0,5.73.49,8.07,1.48,2.35.99,4.17,2.45,5.49,4.38,1.31,1.93,1.97,4.3,1.97,7.11,0,4.14-1.63,7.37-4.9,9.69-3.27,2.32-8.07,3.48-14.42,3.48h-24.98Zm11.11-8.42h13.04c2.9,0,5.09-.47,6.59-1.41,1.49-.94,2.24-2.45,2.24-4.52s-.75-3.53-2.24-4.52c-1.5-.99-3.69-1.48-6.59-1.48h-13.87v-8.14h11.94c2.71,0,4.8-.47,6.24-1.41,1.45-.94,2.17-2.38,2.17-4.31s-.72-3.3-2.17-4.24c-1.45-.94-3.53-1.41-6.24-1.41h-11.11v31.46Z"/>
      <path class="cls-2" d="m102.38,16.35c-1.98,0-3.59-.57-4.83-1.73-1.24-1.15-1.86-2.58-1.86-4.28s.62-3.13,1.86-4.28c1.24-1.15,2.85-1.73,4.83-1.73s3.59.54,4.83,1.62c1.24,1.08,1.86,2.47,1.86,4.17,0,1.79-.61,3.28-1.83,4.45-1.22,1.17-2.84,1.76-4.86,1.76Zm-5.38,42.3V21.53h10.76v37.12h-10.76Z"/>
      <path class="cls-2" d="m129.22,59.2c-2.9,0-5.38-.49-7.45-1.48-2.07-.99-3.66-2.33-4.76-4.04-1.1-1.7-1.66-3.61-1.66-5.73s.54-4.14,1.62-5.8c1.08-1.66,2.79-2.96,5.14-3.9,2.35-.94,5.4-1.41,9.18-1.41h9.87v6.28h-8.69c-2.53,0-4.27.41-5.21,1.24-.94.83-1.41,1.86-1.41,3.1,0,1.38.54,2.47,1.62,3.28,1.08.81,2.56,1.21,4.45,1.21s3.4-.42,4.83-1.28c1.43-.85,2.46-2.1,3.1-3.76l1.66,4.97c-.78,2.39-2.21,4.21-4.28,5.45-2.07,1.24-4.74,1.86-8,1.86Zm11.32-.55v-7.25l-.69-1.59v-12.97c0-2.3-.7-4.09-2.1-5.38-1.4-1.29-3.55-1.93-6.45-1.93-1.98,0-3.92.31-5.83.93-1.91.62-3.53,1.46-4.86,2.52l-3.86-7.52c2.02-1.43,4.46-2.53,7.31-3.31,2.85-.78,5.75-1.17,8.69-1.17,5.66,0,10.05,1.33,13.18,4,3.13,2.67,4.69,6.83,4.69,12.49v21.18h-10.07Z"/>
      <path class="cls-2" d="m172.83,59.2c-3.17,0-6.22-.38-9.14-1.14-2.92-.76-5.23-1.71-6.93-2.86l3.59-7.73c1.7,1.06,3.71,1.92,6.04,2.59,2.32.67,4.61,1,6.87,1,2.48,0,4.24-.3,5.28-.9,1.04-.6,1.55-1.43,1.55-2.48,0-.87-.4-1.53-1.21-1.97-.81-.44-1.88-.77-3.21-1-1.33-.23-2.79-.46-4.38-.69-1.59-.23-3.19-.54-4.8-.93-1.61-.39-3.08-.98-4.42-1.76-1.33-.78-2.4-1.84-3.21-3.17-.81-1.33-1.21-3.06-1.21-5.17,0-2.35.68-4.42,2.04-6.21,1.36-1.79,3.32-3.21,5.9-4.24,2.58-1.04,5.66-1.55,9.25-1.55,2.53,0,5.11.28,7.73.83,2.62.55,4.81,1.36,6.56,2.42l-3.59,7.66c-1.79-1.06-3.6-1.78-5.42-2.17-1.82-.39-3.58-.59-5.28-.59-2.39,0-4.14.32-5.24.97-1.1.64-1.66,1.47-1.66,2.48,0,.92.4,1.61,1.21,2.07.8.46,1.87.83,3.21,1.1,1.33.28,2.79.52,4.38.72s3.18.52,4.8.93c1.61.41,3.07,1,4.38,1.76,1.31.76,2.38,1.79,3.21,3.1.83,1.31,1.24,3.03,1.24,5.14,0,2.3-.69,4.34-2.07,6.11-1.38,1.77-3.37,3.16-5.97,4.17-2.6,1.01-5.76,1.52-9.49,1.52Z"/>
      <path class="cls-2" d="m197.74,58.65V10.35h11.18v39.19h24.22v9.11h-35.4Z"/>
      <path class="cls-2" d="m256.8,59.2c-4.23,0-7.95-.83-11.14-2.48-3.2-1.66-5.67-3.92-7.42-6.8-1.75-2.87-2.62-6.15-2.62-9.83s.86-7.03,2.59-9.9c1.73-2.87,4.08-5.13,7.07-6.76,2.99-1.63,6.37-2.45,10.14-2.45s6.91.77,9.83,2.31c2.92,1.54,5.23,3.75,6.93,6.62,1.7,2.88,2.55,6.31,2.55,10.32,0,.41-.02.89-.07,1.41-.05.53-.09,1.02-.14,1.48h-30.15v-6.28h24.5l-4.14,1.86c0-1.93-.39-3.61-1.17-5.04-.78-1.43-1.86-2.54-3.24-3.35-1.38-.8-2.99-1.21-4.83-1.21s-3.46.4-4.86,1.21c-1.4.81-2.5,1.93-3.28,3.38-.78,1.45-1.17,3.16-1.17,5.14v1.66c0,2.02.45,3.81,1.35,5.35.9,1.54,2.16,2.71,3.79,3.52,1.63.81,3.55,1.21,5.76,1.21,1.98,0,3.71-.3,5.21-.9,1.49-.6,2.86-1.49,4.11-2.69l5.73,6.21c-1.7,1.93-3.84,3.42-6.42,4.45-2.58,1.04-5.54,1.55-8.9,1.55Z"/>
      <path class="cls-1" d="m304.48,20.98c2.94,0,5.58.59,7.9,1.76,2.32,1.17,4.15,2.97,5.49,5.38,1.33,2.42,2,5.51,2,9.28v21.25h-10.76v-19.6c0-2.99-.66-5.2-1.97-6.62-1.31-1.43-3.16-2.14-5.55-2.14-1.7,0-3.23.36-4.59,1.07-1.36.71-2.42,1.81-3.17,3.28-.76,1.47-1.14,3.36-1.14,5.66v18.35h-10.76V21.53h10.28v10.28l-1.93-3.1c1.33-2.48,3.24-4.39,5.73-5.73,2.48-1.33,5.31-2,8.49-2Z"/>
      <path class="cls-1" d="m327.05,58.65v-6.49l21.94-25.94,1.86,3.59h-23.32v-8.28h32.02v6.49l-21.94,25.94-1.93-3.59h24.5v8.28h-33.12Z"/>
    </g>
  </g>
</svg>