<?xml version="1.0" encoding="UTF-8"?>
<svg id="Layer_2" data-name="Layer 2" xmlns="http://www.w3.org/2000/svg" viewBox="0 0 464.5 464.5">
  <defs>
    <style>
      .cls-1 {
        fill: #f15a29;
      }

      .cls-2 {
        fill: #00aeef;
      }
    </style>
  </defs>
  <g id="Layer_1-2" data-name="Layer 1">
    <g>
      <path class="cls-1" d="m269.19,370.12l120.68,32.34c-50.51,46.68-120.76,70.02-192.12,59.19l-13.2-49.23-.14-.53-18.62-69.48,103.4,27.71Z"/>
      <path class="cls-1" d="m333.17,131.33l.38,1.39-.38-1.39Z"/>
      <path class="cls-1" d="m456.28,292.28c-8.39,31.3-22.78,59.39-41.63,83.34l-51.31-13.26-2.67-.69-65.99-17.05,75.43-75.44,88.35-88.35c8.14,35.62,7.93,73.69-2.18,111.44Z"/>
      <path class="cls-1" d="m407.11,188.49l-46.23,46.23-27.33-102.01-.38-1.39-32.31-120.64c69.64,21.51,122.28,73.24,147.29,136.77l-41.04,41.03h-.01Z"/>
      <path class="cls-2" d="m280.53,54.21l18.19,67.88-103.42-27.71-120.66-32.33C125.14,15.37,195.42-7.96,266.77,2.87l13.62,50.82.14.53Z"/>
      <path class="cls-2" d="m131.32,333.17l32.32,120.64c-69.64-21.51-122.29-73.24-147.29-136.77l36.8-36.8,2.72-2.71,47.74-47.75,27.71,103.4Z"/>
      <path class="cls-2" d="m170.07,119.61l-71.5,71.51-4.19,4.18h0S6.02,283.66,6.02,283.66c-8.13-35.62-7.93-73.69,2.18-111.44,8.53-31.83,23.29-60.34,42.61-84.56l50.32,13.48,68.93,18.47Z"/>
    </g>
  </g>
</svg>