<?xml version="1.0" encoding="UTF-8"?>
<svg id="Layer_1" data-name="Layer 1" xmlns="http://www.w3.org/2000/svg" xmlns:xlink="http://www.w3.org/1999/xlink" viewBox="0 0 1936.93 1076.22">
  <defs>
    <style>
      .cls-1 {
        clip-path: url(#clippath-1);
      }

      .cls-2 {
        clip-path: url(#clippath);
      }

      .cls-3 {
        fill: none;
      }
    </style>
    <clipPath id="clippath">
      <rect class="cls-3" x="1049.12" y="307.29" width="671" height="738" rx="37.89" ry="37.89"/>
    </clipPath>
    <clipPath id="clippath-1">
      <rect class="cls-3" x="6.12" y="25.29" width="662" height="755" rx="37.89" ry="37.89"/>
    </clipPath>
  </defs>
  <g class="cls-2">
    <image width="999" height="1098" transform="translate(1048.62 307.79) scale(.67)" xlink:href="../dashboard/static/compiledHeadshots/1News__RFO490M8PH.jpg"/>
  </g>
  <g>
    <path d="m889.16,98.53l44.45-68.38h12.6l17,68.38h-12.6l-14.26-61.83h5.08l-38.68,61.83h-13.58Zm17.39-15.82l5.37-9.96h36.83l1.66,9.96h-43.86Z"/>
    <path d="m1009.6,45.78c4.49,0,8.3.91,11.43,2.74,3.13,1.82,5.32,4.51,6.59,8.06,1.27,3.55,1.38,7.9.34,13.04l-5.76,28.91h-12.21l5.67-28.62c.85-4.23.46-7.54-1.17-9.92-1.63-2.38-4.59-3.57-8.89-3.57s-8.21,1.24-11.14,3.71c-2.93,2.48-4.92,6.25-5.96,11.33l-5.47,27.06h-12.21l10.35-52.16h11.62l-2.93,14.85-1.95-4.69c2.47-3.71,5.58-6.43,9.33-8.16,3.74-1.72,7.86-2.59,12.36-2.59Z"/>
    <path d="m1090.87,99.21c-5.21,0-9.74-.96-13.58-2.88-3.84-1.92-6.82-4.59-8.94-8.01-2.12-3.42-3.17-7.44-3.17-12.06,0-5.93,1.3-11.17,3.91-15.73,2.6-4.56,6.17-8.16,10.7-10.79,4.53-2.64,9.69-3.96,15.48-3.96,4.88,0,9.12.91,12.7,2.74,3.58,1.82,6.37,4.44,8.35,7.86,1.99,3.42,2.98,7.51,2.98,12.26,0,1.24-.07,2.51-.2,3.81-.13,1.3-.33,2.51-.59,3.61h-44.25l1.37-8.11h37.12l-4.98,2.74c.52-3.32.29-6.09-.68-8.3-.98-2.21-2.54-3.91-4.69-5.08-2.15-1.17-4.72-1.76-7.72-1.76-3.58,0-6.69.83-9.33,2.49-2.64,1.66-4.67,4-6.1,7.03-1.43,3.03-2.15,6.56-2.15,10.6s1.22,7.49,3.66,9.77c2.44,2.28,6.24,3.42,11.38,3.42,2.93,0,5.73-.47,8.4-1.42,2.67-.94,4.88-2.26,6.64-3.96l5.08,8.5c-2.74,2.41-5.98,4.22-9.72,5.42-3.75,1.2-7.64,1.81-11.67,1.81Z"/>
    <path d="m1116.37,98.53l29.3-30.18-1.37,6.35-15.92-28.33h12.7l11.53,20.9-5.67-.1,19.93-20.81h13.68l-28.03,29.11.98-6.74,16.9,29.79h-12.89l-12.01-21.78h5.57l-20.61,21.78h-14.07Z"/>
    <path d="m1201.35,99.21c-4.23,0-8.09-.91-11.58-2.73-3.48-1.82-6.25-4.44-8.3-7.86-2.05-3.42-3.08-7.54-3.08-12.36,0-4.43.73-8.5,2.2-12.21,1.47-3.71,3.53-6.94,6.2-9.67,2.67-2.73,5.78-4.85,9.33-6.35,3.55-1.5,7.44-2.25,11.67-2.25s8.12.78,11.28,2.34c3.16,1.56,5.55,3.92,7.18,7.08,1.63,3.16,2.38,7.08,2.25,11.77-.13,6.45-1.3,12.1-3.52,16.95-2.21,4.85-5.31,8.61-9.28,11.28-3.97,2.67-8.76,4-14.36,4Zm3.13-10.45c3.52,0,6.61-.83,9.28-2.49,2.67-1.66,4.79-3.96,6.35-6.89,1.56-2.93,2.34-6.32,2.34-10.16,0-4.04-1.21-7.23-3.61-9.57-2.41-2.34-5.8-3.52-10.16-3.52-3.45,0-6.53.83-9.23,2.49-2.7,1.66-4.84,3.96-6.4,6.89-1.56,2.93-2.34,6.32-2.34,10.16,0,4.04,1.2,7.23,3.61,9.57,2.41,2.34,5.8,3.52,10.16,3.52Zm12.8,9.77l2.34-11.92,3.32-13.87,1.66-13.97,2.44-12.41h12.21l-10.35,52.16h-11.62Z"/>
    <path d="m1319.74,45.78c4.56,0,8.37.91,11.43,2.74,3.06,1.82,5.21,4.51,6.45,8.06,1.24,3.55,1.33,7.9.29,13.04l-5.76,28.91h-12.21l5.76-28.62c.84-4.3.49-7.62-1.08-9.96-1.56-2.34-4.4-3.52-8.5-3.52s-7.7,1.22-10.4,3.66c-2.7,2.44-4.58,6.2-5.62,11.28l-5.47,27.16h-12.21l5.76-28.62c.85-4.3.49-7.62-1.07-9.96-1.56-2.34-4.4-3.52-8.5-3.52s-7.7,1.22-10.4,3.66c-2.7,2.44-4.58,6.24-5.62,11.38l-5.47,27.06h-12.21l10.35-52.16h11.62l-2.83,14.36-2.05-4.2c2.41-3.71,5.42-6.43,9.04-8.16,3.61-1.72,7.57-2.59,11.87-2.59,3.39,0,6.38.57,8.99,1.71,2.6,1.14,4.7,2.87,6.3,5.18,1.59,2.31,2.52,5.16,2.78,8.55l-5.86-1.27c2.67-4.69,6.11-8.22,10.31-10.6,4.2-2.38,8.97-3.57,14.31-3.57Z"/>
    <path d="m1343.96,117.48l14.16-71.11h11.62l-2.34,11.92-3.22,13.87-1.76,13.97-6.25,31.36h-12.21Zm35.36-18.27c-4.36,0-8.14-.8-11.33-2.39-3.19-1.59-5.6-3.97-7.23-7.13-1.63-3.16-2.38-7.08-2.25-11.77.13-6.51,1.3-12.18,3.52-17,2.21-4.82,5.32-8.55,9.33-11.18,4-2.64,8.77-3.96,14.31-3.96,4.3,0,8.17.9,11.62,2.69,3.45,1.79,6.2,4.4,8.25,7.81,2.05,3.42,3.08,7.54,3.08,12.36,0,4.43-.73,8.5-2.2,12.21-1.47,3.71-3.53,6.94-6.2,9.67-2.67,2.73-5.78,4.87-9.33,6.4-3.55,1.53-7.41,2.3-11.58,2.3Zm-.98-10.45c3.52,0,6.61-.83,9.28-2.49,2.67-1.66,4.79-3.96,6.35-6.89,1.56-2.93,2.34-6.32,2.34-10.16,0-4.04-1.21-7.23-3.61-9.57-2.41-2.34-5.8-3.52-10.16-3.52-3.45,0-6.53.83-9.23,2.49-2.7,1.66-4.84,3.96-6.4,6.89-1.56,2.93-2.34,6.32-2.34,10.16,0,4.04,1.2,7.23,3.61,9.57,2.41,2.34,5.8,3.52,10.16,3.52Z"/>
    <path d="m1414.78,98.53l14.46-72.48h12.21l-14.46,72.48h-12.21Z"/>
    <path d="m1469.19,99.21c-5.21,0-9.74-.96-13.58-2.88-3.84-1.92-6.82-4.59-8.94-8.01-2.12-3.42-3.17-7.44-3.17-12.06,0-5.93,1.3-11.17,3.91-15.73,2.6-4.56,6.17-8.16,10.7-10.79,4.53-2.64,9.69-3.96,15.48-3.96,4.88,0,9.12.91,12.7,2.74,3.58,1.82,6.37,4.44,8.35,7.86,1.99,3.42,2.98,7.51,2.98,12.26,0,1.24-.07,2.51-.2,3.81-.13,1.3-.33,2.51-.59,3.61h-44.25l1.37-8.11h37.12l-4.98,2.74c.52-3.32.29-6.09-.68-8.3-.98-2.21-2.54-3.91-4.69-5.08-2.15-1.17-4.72-1.76-7.72-1.76-3.58,0-6.69.83-9.33,2.49-2.64,1.66-4.67,4-6.1,7.03-1.43,3.03-2.15,6.56-2.15,10.6s1.22,7.49,3.66,9.77c2.44,2.28,6.24,3.42,11.38,3.42,2.93,0,5.73-.47,8.4-1.42,2.67-.94,4.88-2.26,6.64-3.96l5.08,8.5c-2.74,2.41-5.98,4.22-9.72,5.42-3.75,1.2-7.64,1.81-11.67,1.81Z"/>
    <path d="m1556.22,99.21c-5.08,0-9.52-.96-13.33-2.88-3.81-1.92-6.76-4.59-8.84-8.01-2.08-3.42-3.13-7.44-3.13-12.06,0-5.86,1.33-11.09,4-15.68,2.67-4.59,6.33-8.21,10.99-10.84,4.66-2.64,9.98-3.96,15.97-3.96,5.14,0,9.62.93,13.43,2.78s6.75,4.49,8.84,7.91c2.08,3.42,3.13,7.47,3.13,12.16,0,5.8-1.33,11.01-4,15.63-2.67,4.62-6.33,8.27-10.99,10.94-4.66,2.67-10.01,4-16.07,4Zm.78-10.45c3.52,0,6.61-.83,9.28-2.49,2.67-1.66,4.79-3.96,6.35-6.89,1.56-2.93,2.34-6.32,2.34-10.16,0-4.04-1.21-7.23-3.61-9.57-2.41-2.34-5.8-3.52-10.16-3.52-3.45,0-6.53.83-9.23,2.49-2.7,1.66-4.84,3.96-6.4,6.89-1.56,2.93-2.34,6.32-2.34,10.16,0,4.1,1.2,7.31,3.61,9.62,2.41,2.31,5.8,3.47,10.16,3.47Z"/>
    <path d="m1594.9,56.53l1.95-9.77h34.68l-1.95,9.77h-34.68Zm.1,42l11.14-55.48c1.11-5.47,3.42-9.78,6.94-12.94,3.52-3.16,8.21-4.74,14.07-4.74,2.21,0,4.33.26,6.35.78,2.02.52,3.71,1.3,5.08,2.34l-4.98,8.89c-1.76-1.43-3.91-2.15-6.45-2.15s-4.56.72-6.06,2.15c-1.5,1.43-2.57,3.61-3.22,6.54l-1.27,5.86-.59,4.98-8.79,43.76h-12.21Z"/>
    <path d="m1679.88,99.21c-4.23,0-8.09-.91-11.58-2.73-3.48-1.82-6.25-4.44-8.3-7.86-2.05-3.42-3.08-7.54-3.08-12.36,0-4.43.73-8.5,2.2-12.21,1.47-3.71,3.53-6.94,6.2-9.67,2.67-2.73,5.78-4.85,9.33-6.35,3.55-1.5,7.44-2.25,11.67-2.25s8.12.78,11.28,2.34c3.16,1.56,5.55,3.92,7.18,7.08,1.63,3.16,2.38,7.08,2.25,11.77-.13,6.45-1.3,12.1-3.52,16.95-2.21,4.85-5.31,8.61-9.28,11.28-3.97,2.67-8.76,4-14.36,4Zm3.13-10.45c3.52,0,6.61-.83,9.28-2.49,2.67-1.66,4.79-3.96,6.35-6.89,1.56-2.93,2.34-6.32,2.34-10.16,0-4.04-1.21-7.23-3.61-9.57-2.41-2.34-5.8-3.52-10.16-3.52-3.45,0-6.53.83-9.23,2.49-2.7,1.66-4.84,3.96-6.4,6.89-1.56,2.93-2.34,6.32-2.34,10.16,0,4.04,1.2,7.23,3.61,9.57,2.41,2.34,5.8,3.52,10.16,3.52Zm12.8,9.77l2.34-11.92,3.32-13.87,1.66-13.97,2.44-12.41h12.21l-10.35,52.16h-11.62Z"/>
    <path d="m988.21,163c4.49,0,8.3.91,11.43,2.74,3.13,1.82,5.32,4.51,6.59,8.06,1.27,3.55,1.38,7.9.34,13.04l-5.76,28.91h-12.21l5.67-28.62c.85-4.23.46-7.54-1.17-9.92-1.63-2.38-4.59-3.57-8.89-3.57s-8.21,1.24-11.14,3.71c-2.93,2.48-4.92,6.25-5.96,11.33l-5.47,27.06h-12.21l10.35-52.16h11.62l-2.93,14.85-1.95-4.69c2.47-3.71,5.58-6.43,9.33-8.16,3.74-1.72,7.86-2.59,12.36-2.59Z"/>
    <path d="m1042.62,216.43c-5.21,0-9.74-.96-13.58-2.88-3.84-1.92-6.82-4.59-8.94-8.01-2.12-3.42-3.17-7.44-3.17-12.06,0-5.93,1.3-11.17,3.91-15.73,2.6-4.56,6.17-8.16,10.7-10.79,4.53-2.64,9.69-3.96,15.48-3.96,4.88,0,9.12.91,12.7,2.74,3.58,1.82,6.37,4.44,8.35,7.86,1.99,3.42,2.98,7.51,2.98,12.26,0,1.24-.07,2.51-.2,3.81-.13,1.3-.33,2.51-.59,3.61h-44.25l1.37-8.11h37.12l-4.98,2.74c.52-3.32.29-6.09-.68-8.3-.98-2.21-2.54-3.91-4.69-5.08-2.15-1.17-4.72-1.76-7.72-1.76-3.58,0-6.69.83-9.33,2.49-2.64,1.66-4.67,4-6.1,7.03-1.43,3.03-2.15,6.56-2.15,10.6s1.22,7.49,3.66,9.77c2.44,2.28,6.24,3.42,11.38,3.42,2.93,0,5.73-.47,8.4-1.42,2.67-.94,4.88-2.26,6.64-3.96l5.08,8.5c-2.74,2.41-5.98,4.22-9.72,5.42-3.75,1.2-7.64,1.81-11.67,1.81Z"/>
    <path d="m1098,235.38c-4.95,0-9.51-.6-13.67-1.81-4.17-1.21-7.75-2.98-10.75-5.32l6.35-9.18c2.02,1.76,4.69,3.17,8.01,4.25,3.32,1.07,6.94,1.61,10.84,1.61,5.73,0,10.06-1.25,12.99-3.76,2.93-2.51,4.88-6.27,5.86-11.28l2.15-10.75,3.22-11.04,1.95-11.82,2.44-12.7h11.62l-8.79,44.25c-1.95,9.7-5.6,16.72-10.94,21.05-5.34,4.33-12.44,6.5-21.29,6.5Zm3.03-21.98c-4.49,0-8.5-.86-12.01-2.59-3.52-1.72-6.29-4.2-8.3-7.42-2.02-3.22-3.03-7.08-3.03-11.58,0-4.1.73-7.9,2.2-11.38,1.46-3.48,3.52-6.53,6.15-9.13,2.64-2.6,5.76-4.64,9.38-6.1,3.61-1.47,7.57-2.2,11.87-2.2,3.78,0,7.26.67,10.45,2,3.19,1.34,5.73,3.48,7.62,6.45,1.89,2.96,2.77,6.85,2.64,11.67-.13,5.73-1.27,10.89-3.42,15.48-2.15,4.59-5.21,8.21-9.18,10.84-3.97,2.64-8.76,3.96-14.36,3.96Zm2.74-10.35c3.52,0,6.61-.76,9.28-2.3,2.67-1.53,4.77-3.65,6.3-6.35,1.53-2.7,2.3-5.75,2.3-9.13,0-3.71-1.21-6.63-3.61-8.74-2.41-2.12-5.76-3.17-10.06-3.17-3.52,0-6.61.77-9.28,2.3-2.67,1.53-4.79,3.63-6.35,6.3-1.56,2.67-2.34,5.73-2.34,9.18,0,3.71,1.22,6.63,3.66,8.74,2.44,2.12,5.81,3.17,10.11,3.17Z"/>
    <path d="m1168.14,216.43c-4.23,0-8.09-.91-11.58-2.73-3.48-1.82-6.25-4.44-8.3-7.86-2.05-3.42-3.08-7.54-3.08-12.36,0-4.43.73-8.5,2.2-12.21,1.47-3.71,3.53-6.94,6.2-9.67,2.67-2.73,5.78-4.85,9.33-6.35,3.55-1.5,7.44-2.25,11.67-2.25s8.12.78,11.28,2.34c3.16,1.56,5.55,3.92,7.18,7.08,1.63,3.16,2.38,7.08,2.25,11.77-.13,6.45-1.3,12.1-3.52,16.95-2.21,4.85-5.31,8.61-9.28,11.28-3.97,2.67-8.76,4-14.36,4Zm3.13-10.45c3.52,0,6.61-.83,9.28-2.49,2.67-1.66,4.79-3.96,6.35-6.89,1.56-2.93,2.34-6.32,2.34-10.16,0-4.04-1.21-7.23-3.61-9.57-2.41-2.34-5.8-3.52-10.16-3.52-3.45,0-6.53.83-9.23,2.49-2.7,1.66-4.84,3.96-6.4,6.89-1.56,2.93-2.34,6.32-2.34,10.16,0,4.04,1.2,7.23,3.61,9.57,2.41,2.34,5.8,3.52,10.16,3.52Zm12.8,9.77l2.34-11.92,3.32-13.87,1.66-13.97,2.44-12.41h12.21l-10.35,52.16h-11.62Z"/>
    <path d="m1213.17,173.74l1.95-9.77h34.68l-1.95,9.77h-34.68Zm18.07,42.69c-3.39,0-6.3-.73-8.74-2.2-2.44-1.47-4.2-3.55-5.28-6.25-1.07-2.7-1.25-5.91-.54-9.62l9.28-46.3h12.21l-9.28,46.2c-.39,2.41-.13,4.36.78,5.86.91,1.5,2.64,2.25,5.18,2.25,1.17,0,2.36-.18,3.57-.54,1.2-.36,2.3-.86,3.27-1.51l2.15,8.99c-1.82,1.17-3.84,1.99-6.06,2.44-2.21.45-4.4.68-6.54.68Z"/>
    <path d="m1253.12,215.75l10.35-52.16h12.21l-10.35,52.16h-12.21Zm19.24-60.76c-2.21,0-3.99-.67-5.32-2-1.34-1.33-2-2.95-2-4.84,0-2.21.76-4.07,2.3-5.57,1.53-1.5,3.53-2.25,6.01-2.25,2.15,0,3.91.64,5.28,1.9,1.37,1.27,2.05,2.82,2.05,4.64,0,2.41-.75,4.36-2.25,5.86-1.5,1.5-3.52,2.25-6.06,2.25Z"/>
    <path d="m1295.32,215.75l-12.02-52.16h12.02l10.35,46.01h-6.15l28.82-46.01h12.31l-32.72,52.16h-12.6Z"/>
    <path d="m1362.52,216.43c-5.21,0-9.74-.96-13.58-2.88-3.84-1.92-6.82-4.59-8.94-8.01-2.12-3.42-3.17-7.44-3.17-12.06,0-5.93,1.3-11.17,3.91-15.73,2.6-4.56,6.17-8.16,10.7-10.79,4.53-2.64,9.69-3.96,15.48-3.96,4.88,0,9.12.91,12.7,2.74,3.58,1.82,6.37,4.44,8.35,7.86,1.99,3.42,2.98,7.51,2.98,12.26,0,1.24-.07,2.51-.2,3.81-.13,1.3-.33,2.51-.59,3.61h-44.25l1.37-8.11h37.12l-4.98,2.74c.52-3.32.29-6.09-.68-8.3-.98-2.21-2.54-3.91-4.69-5.08-2.15-1.17-4.72-1.76-7.72-1.76-3.58,0-6.69.83-9.33,2.49-2.64,1.66-4.67,4-6.1,7.03-1.43,3.03-2.15,6.56-2.15,10.6s1.22,7.49,3.66,9.77c2.44,2.28,6.24,3.42,11.38,3.42,2.93,0,5.73-.47,8.4-1.42,2.67-.94,4.88-2.26,6.64-3.96l5.08,8.5c-2.74,2.41-5.98,4.22-9.72,5.42-3.75,1.2-7.64,1.81-11.67,1.81Z"/>
    <path d="m1419.95,234.7l14.16-71.11h11.62l-2.34,11.92-3.22,13.87-1.76,13.97-6.25,31.36h-12.21Zm35.36-18.27c-4.36,0-8.14-.8-11.33-2.39-3.19-1.59-5.6-3.97-7.23-7.13-1.63-3.16-2.38-7.08-2.25-11.77.13-6.51,1.3-12.18,3.52-17,2.21-4.82,5.32-8.55,9.33-11.18,4-2.64,8.77-3.96,14.31-3.96,4.3,0,8.17.9,11.62,2.69,3.45,1.79,6.2,4.4,8.25,7.81,2.05,3.42,3.08,7.54,3.08,12.36,0,4.43-.73,8.5-2.2,12.21-1.47,3.71-3.53,6.94-6.2,9.67-2.67,2.73-5.78,4.87-9.33,6.4-3.55,1.53-7.41,2.3-11.58,2.3Zm-.98-10.45c3.52,0,6.61-.83,9.28-2.49,2.67-1.66,4.79-3.96,6.35-6.89,1.56-2.93,2.34-6.32,2.34-10.16,0-4.04-1.21-7.23-3.61-9.57-2.41-2.34-5.8-3.52-10.16-3.52-3.45,0-6.53.83-9.23,2.49-2.7,1.66-4.84,3.96-6.4,6.89-1.56,2.93-2.34,6.32-2.34,10.16,0,4.04,1.2,7.23,3.61,9.57,2.41,2.34,5.8,3.52,10.16,3.52Z"/>
    <path d="m1529.55,163c4.49,0,8.29.91,11.38,2.74,3.09,1.82,5.29,4.51,6.59,8.06,1.3,3.55,1.43,7.9.39,13.04l-5.76,28.91h-12.21l5.67-28.62c.85-4.23.46-7.54-1.17-9.92-1.63-2.38-4.59-3.57-8.89-3.57s-8.21,1.24-11.14,3.71c-2.93,2.48-4.92,6.25-5.96,11.33l-5.47,27.06h-12.21l14.46-72.48h12.21l-7.03,35.17-2.54-4.69c2.47-3.71,5.58-6.43,9.33-8.16,3.74-1.72,7.86-2.59,12.36-2.59Z"/>
    <path d="m1583.57,216.43c-5.08,0-9.52-.96-13.33-2.88-3.81-1.92-6.76-4.59-8.84-8.01-2.08-3.42-3.13-7.44-3.13-12.06,0-5.86,1.33-11.09,4-15.68,2.67-4.59,6.33-8.21,10.99-10.84,4.66-2.64,9.98-3.96,15.97-3.96,5.14,0,9.62.93,13.43,2.78s6.75,4.49,8.84,7.91c2.08,3.42,3.13,7.47,3.13,12.16,0,5.8-1.33,11.01-4,15.63-2.67,4.62-6.33,8.27-10.99,10.94-4.66,2.67-10.01,4-16.07,4Zm.78-10.45c3.52,0,6.61-.83,9.28-2.49,2.67-1.66,4.79-3.96,6.35-6.89,1.56-2.93,2.34-6.32,2.34-10.16,0-4.04-1.21-7.23-3.61-9.57-2.41-2.34-5.8-3.52-10.16-3.52-3.45,0-6.53.83-9.23,2.49-2.7,1.66-4.84,3.96-6.4,6.89-1.56,2.93-2.34,6.32-2.34,10.16,0,4.1,1.2,7.31,3.61,9.62,2.41,2.31,5.8,3.47,10.16,3.47Z"/>
    <path d="m1622.25,173.74l1.95-9.77h34.68l-1.95,9.77h-34.68Zm18.07,42.69c-3.39,0-6.3-.73-8.74-2.2-2.44-1.47-4.2-3.55-5.28-6.25-1.07-2.7-1.25-5.91-.54-9.62l9.28-46.3h12.21l-9.28,46.2c-.39,2.41-.13,4.36.78,5.86.91,1.5,2.64,2.25,5.18,2.25,1.17,0,2.36-.18,3.57-.54,1.2-.36,2.3-.86,3.27-1.51l2.15,8.99c-1.82,1.17-3.84,1.99-6.06,2.44-2.21.45-4.4.68-6.54.68Z"/>
    <path d="m1686.23,216.43c-5.08,0-9.52-.96-13.33-2.88-3.81-1.92-6.76-4.59-8.84-8.01-2.08-3.42-3.13-7.44-3.13-12.06,0-5.86,1.33-11.09,4-15.68,2.67-4.59,6.33-8.21,10.99-10.84,4.66-2.64,9.98-3.96,15.97-3.96,5.14,0,9.62.93,13.43,2.78s6.75,4.49,8.84,7.91c2.08,3.42,3.13,7.47,3.13,12.16,0,5.8-1.33,11.01-4,15.63-2.67,4.62-6.33,8.27-10.99,10.94-4.66,2.67-10.01,4-16.07,4Zm.78-10.45c3.52,0,6.61-.83,9.28-2.49,2.67-1.66,4.79-3.96,6.35-6.89,1.56-2.93,2.34-6.32,2.34-10.16,0-4.04-1.21-7.23-3.61-9.57-2.41-2.34-5.8-3.52-10.16-3.52-3.45,0-6.53.83-9.23,2.49-2.7,1.66-4.84,3.96-6.4,6.89-1.56,2.93-2.34,6.32-2.34,10.16,0,4.1,1.2,7.31,3.61,9.62,2.41,2.31,5.8,3.47,10.16,3.47Z"/>
  </g>
  <g>
    <path d="m0,914.03l44.45-68.38h12.6l17,68.38h-12.6l-14.26-61.83h5.08l-38.68,61.83H0Zm17.39-15.82l5.37-9.96h36.83l1.66,9.96H17.39Z"/>
    <path d="m120.44,861.28c4.49,0,8.3.91,11.43,2.73,3.13,1.82,5.32,4.51,6.59,8.06,1.27,3.55,1.38,7.9.34,13.04l-5.76,28.91h-12.21l5.67-28.62c.85-4.23.45-7.54-1.17-9.91-1.63-2.38-4.59-3.57-8.89-3.57s-8.21,1.24-11.14,3.71c-2.93,2.48-4.92,6.25-5.96,11.33l-5.47,27.06h-12.21l10.35-52.16h11.62l-2.93,14.85-1.95-4.69c2.47-3.71,5.58-6.43,9.33-8.16,3.74-1.72,7.86-2.59,12.36-2.59Z"/>
    <path d="m201.71,914.71c-5.21,0-9.74-.96-13.58-2.88-3.84-1.92-6.82-4.59-8.94-8.01-2.12-3.42-3.17-7.44-3.17-12.06,0-5.92,1.3-11.17,3.91-15.73,2.6-4.56,6.17-8.16,10.7-10.79,4.53-2.64,9.69-3.96,15.48-3.96,4.88,0,9.12.91,12.7,2.73,3.58,1.82,6.36,4.45,8.35,7.86,1.99,3.42,2.98,7.51,2.98,12.26,0,1.24-.07,2.51-.2,3.81-.13,1.3-.33,2.51-.59,3.61h-44.25l1.37-8.11h37.12l-4.98,2.73c.52-3.32.29-6.09-.68-8.3-.98-2.21-2.54-3.91-4.69-5.08s-4.72-1.76-7.72-1.76c-3.58,0-6.69.83-9.33,2.49-2.64,1.66-4.67,4-6.11,7.03-1.43,3.03-2.15,6.56-2.15,10.6s1.22,7.49,3.66,9.77c2.44,2.28,6.23,3.42,11.38,3.42,2.93,0,5.73-.47,8.4-1.42,2.67-.94,4.88-2.26,6.64-3.96l5.08,8.5c-2.73,2.41-5.98,4.22-9.72,5.42-3.75,1.2-7.64,1.81-11.67,1.81Z"/>
    <path d="m227.21,914.03l29.3-30.18-1.37,6.35-15.92-28.33h12.7l11.53,20.9-5.67-.1,19.93-20.81h13.68l-28.03,29.11.98-6.74,16.9,29.79h-12.89l-12.02-21.78h5.57l-20.61,21.78h-14.07Z"/>
    <path d="m312.19,914.71c-4.23,0-8.09-.91-11.58-2.74-3.48-1.82-6.25-4.44-8.3-7.86-2.05-3.42-3.08-7.54-3.08-12.36,0-4.43.73-8.5,2.2-12.21s3.53-6.94,6.2-9.67c2.67-2.74,5.78-4.85,9.33-6.35,3.55-1.5,7.44-2.25,11.67-2.25s8.12.78,11.28,2.34c3.16,1.56,5.55,3.92,7.18,7.08,1.63,3.16,2.38,7.08,2.25,11.77-.13,6.45-1.3,12.1-3.52,16.95-2.21,4.85-5.31,8.61-9.28,11.28-3.97,2.67-8.76,4-14.36,4Zm3.13-10.45c3.52,0,6.61-.83,9.28-2.49,2.67-1.66,4.79-3.96,6.35-6.89,1.56-2.93,2.34-6.32,2.34-10.16,0-4.04-1.21-7.23-3.61-9.57-2.41-2.34-5.8-3.52-10.16-3.52-3.45,0-6.53.83-9.23,2.49-2.7,1.66-4.83,3.96-6.4,6.89s-2.34,6.32-2.34,10.16c0,4.04,1.2,7.23,3.61,9.57,2.41,2.34,5.8,3.52,10.16,3.52Zm12.8,9.77l2.34-11.92,3.32-13.87,1.66-13.97,2.44-12.41h12.21l-10.35,52.16h-11.62Z"/>
    <path d="m430.58,861.28c4.56,0,8.37.91,11.43,2.73,3.06,1.82,5.21,4.51,6.45,8.06,1.24,3.55,1.33,7.9.29,13.04l-5.76,28.91h-12.21l5.76-28.62c.85-4.3.49-7.62-1.07-9.96-1.56-2.34-4.4-3.52-8.5-3.52s-7.7,1.22-10.4,3.66c-2.7,2.44-4.58,6.2-5.62,11.28l-5.47,27.16h-12.21l5.76-28.62c.85-4.3.49-7.62-1.07-9.96-1.56-2.34-4.4-3.52-8.5-3.52s-7.7,1.22-10.4,3.66c-2.7,2.44-4.58,6.24-5.62,11.38l-5.47,27.06h-12.21l10.35-52.16h11.62l-2.83,14.36-2.05-4.2c2.41-3.71,5.42-6.43,9.04-8.16,3.61-1.72,7.57-2.59,11.87-2.59,3.39,0,6.38.57,8.99,1.71,2.6,1.14,4.7,2.87,6.3,5.18,1.6,2.31,2.52,5.16,2.78,8.55l-5.86-1.27c2.67-4.69,6.1-8.22,10.31-10.6,4.2-2.38,8.97-3.57,14.31-3.57Z"/>
    <path d="m454.8,932.98l14.16-71.11h11.62l-2.34,11.92-3.22,13.87-1.76,13.97-6.25,31.36h-12.21Zm35.36-18.27c-4.36,0-8.14-.8-11.33-2.39-3.19-1.6-5.6-3.97-7.23-7.13-1.63-3.16-2.38-7.08-2.25-11.77.13-6.51,1.3-12.18,3.52-17,2.21-4.82,5.32-8.55,9.33-11.18s8.77-3.96,14.31-3.96c4.3,0,8.17.9,11.62,2.69,3.45,1.79,6.2,4.4,8.25,7.82,2.05,3.42,3.08,7.54,3.08,12.36,0,4.43-.73,8.5-2.2,12.21s-3.53,6.94-6.2,9.67c-2.67,2.74-5.78,4.87-9.33,6.4-3.55,1.53-7.41,2.29-11.58,2.29Zm-.98-10.45c3.52,0,6.61-.83,9.28-2.49,2.67-1.66,4.79-3.96,6.35-6.89,1.56-2.93,2.34-6.32,2.34-10.16,0-4.04-1.21-7.23-3.61-9.57-2.41-2.34-5.8-3.52-10.16-3.52-3.45,0-6.53.83-9.23,2.49-2.7,1.66-4.83,3.96-6.4,6.89s-2.34,6.32-2.34,10.16c0,4.04,1.2,7.23,3.61,9.57,2.41,2.34,5.79,3.52,10.16,3.52Z"/>
    <path d="m525.62,914.03l14.46-72.48h12.21l-14.46,72.48h-12.21Z"/>
    <path d="m580.03,914.71c-5.21,0-9.74-.96-13.58-2.88-3.84-1.92-6.82-4.59-8.94-8.01-2.12-3.42-3.17-7.44-3.17-12.06,0-5.92,1.3-11.17,3.91-15.73,2.6-4.56,6.17-8.16,10.7-10.79,4.53-2.64,9.69-3.96,15.48-3.96,4.88,0,9.12.91,12.7,2.73,3.58,1.82,6.36,4.45,8.35,7.86,1.99,3.42,2.98,7.51,2.98,12.26,0,1.24-.07,2.51-.2,3.81-.13,1.3-.33,2.51-.59,3.61h-44.25l1.37-8.11h37.12l-4.98,2.73c.52-3.32.29-6.09-.68-8.3-.98-2.21-2.54-3.91-4.69-5.08s-4.72-1.76-7.72-1.76c-3.58,0-6.69.83-9.33,2.49-2.64,1.66-4.67,4-6.11,7.03-1.43,3.03-2.15,6.56-2.15,10.6s1.22,7.49,3.66,9.77c2.44,2.28,6.23,3.42,11.38,3.42,2.93,0,5.73-.47,8.4-1.42,2.67-.94,4.88-2.26,6.64-3.96l5.08,8.5c-2.73,2.41-5.98,4.22-9.72,5.42-3.75,1.2-7.64,1.81-11.67,1.81Z"/>
    <path d="m667.06,914.71c-5.08,0-9.52-.96-13.33-2.88-3.81-1.92-6.76-4.59-8.84-8.01-2.08-3.42-3.13-7.44-3.13-12.06,0-5.86,1.33-11.09,4-15.68,2.67-4.59,6.33-8.21,10.99-10.84,4.66-2.64,9.98-3.96,15.97-3.96,5.14,0,9.62.93,13.43,2.78,3.81,1.86,6.75,4.49,8.84,7.91,2.08,3.42,3.13,7.47,3.13,12.16,0,5.8-1.33,11.01-4,15.63-2.67,4.62-6.33,8.27-10.99,10.94-4.66,2.67-10.01,4-16.07,4Zm.78-10.45c3.52,0,6.61-.83,9.28-2.49,2.67-1.66,4.79-3.96,6.35-6.89s2.34-6.32,2.34-10.16c0-4.04-1.21-7.23-3.61-9.57-2.41-2.34-5.8-3.52-10.16-3.52-3.45,0-6.53.83-9.23,2.49-2.7,1.66-4.83,3.96-6.4,6.89s-2.34,6.32-2.34,10.16c0,4.1,1.2,7.31,3.61,9.62,2.41,2.31,5.8,3.47,10.16,3.47Z"/>
    <path d="m705.74,872.02l1.95-9.77h34.68l-1.95,9.77h-34.68Zm.1,42l11.14-55.48c1.11-5.47,3.42-9.78,6.94-12.94,3.52-3.16,8.21-4.74,14.07-4.74,2.21,0,4.33.26,6.35.78,2.02.52,3.71,1.3,5.08,2.34l-4.98,8.89c-1.76-1.43-3.91-2.15-6.45-2.15s-4.56.72-6.06,2.15c-1.5,1.43-2.57,3.61-3.22,6.54l-1.27,5.86-.59,4.98-8.79,43.76h-12.21Z"/>
    <path d="m790.72,914.71c-4.23,0-8.09-.91-11.58-2.74-3.48-1.82-6.25-4.44-8.3-7.86-2.05-3.42-3.08-7.54-3.08-12.36,0-4.43.73-8.5,2.2-12.21,1.47-3.71,3.53-6.94,6.2-9.67,2.67-2.74,5.78-4.85,9.33-6.35,3.55-1.5,7.44-2.25,11.67-2.25s8.12.78,11.28,2.34c3.16,1.56,5.55,3.92,7.18,7.08,1.63,3.16,2.38,7.08,2.25,11.77-.13,6.45-1.3,12.1-3.52,16.95-2.21,4.85-5.31,8.61-9.28,11.28-3.97,2.67-8.76,4-14.36,4Zm3.13-10.45c3.52,0,6.61-.83,9.28-2.49,2.67-1.66,4.79-3.96,6.35-6.89,1.56-2.93,2.34-6.32,2.34-10.16,0-4.04-1.21-7.23-3.61-9.57-2.41-2.34-5.8-3.52-10.16-3.52-3.45,0-6.53.83-9.23,2.49-2.7,1.66-4.84,3.96-6.4,6.89-1.56,2.93-2.34,6.32-2.34,10.16,0,4.04,1.2,7.23,3.61,9.57,2.41,2.34,5.8,3.52,10.16,3.52Zm12.8,9.77l2.34-11.92,3.32-13.87,1.66-13.97,2.44-12.41h12.21l-10.35,52.16h-11.62Z"/>
    <path d="m4.69,1050.19l14.16-71.11h11.62l-2.34,11.92-3.22,13.87-1.76,13.97-6.25,31.36H4.69Zm35.36-18.27c-4.36,0-8.14-.8-11.33-2.39-3.19-1.6-5.6-3.97-7.23-7.13-1.63-3.16-2.38-7.08-2.25-11.77.13-6.51,1.3-12.18,3.52-17,2.21-4.82,5.32-8.55,9.33-11.18s8.77-3.96,14.31-3.96c4.3,0,8.17.9,11.62,2.69,3.45,1.79,6.2,4.4,8.25,7.82,2.05,3.42,3.08,7.54,3.08,12.36,0,4.43-.73,8.5-2.2,12.21s-3.53,6.94-6.2,9.67c-2.67,2.74-5.78,4.87-9.33,6.4-3.55,1.53-7.41,2.29-11.58,2.29Zm-.98-10.45c3.52,0,6.61-.83,9.28-2.49,2.67-1.66,4.79-3.96,6.35-6.89,1.56-2.93,2.34-6.32,2.34-10.16,0-4.04-1.21-7.23-3.61-9.57-2.41-2.34-5.8-3.52-10.16-3.52-3.45,0-6.53.83-9.23,2.49-2.7,1.66-4.83,3.96-6.4,6.89s-2.34,6.32-2.34,10.16c0,4.04,1.2,7.23,3.61,9.57,2.41,2.34,5.79,3.52,10.16,3.52Z"/>
    <path d="m101.29,1031.93c-5.08,0-9.52-.96-13.33-2.88-3.81-1.92-6.76-4.59-8.84-8.01-2.08-3.42-3.13-7.44-3.13-12.06,0-5.86,1.33-11.09,4-15.68,2.67-4.59,6.33-8.21,10.99-10.84,4.66-2.64,9.98-3.96,15.97-3.96,5.14,0,9.62.93,13.43,2.78,3.81,1.86,6.76,4.49,8.84,7.91,2.08,3.42,3.13,7.47,3.13,12.16,0,5.8-1.34,11.01-4,15.63-2.67,4.62-6.33,8.27-10.99,10.94-4.66,2.67-10.01,4-16.07,4Zm.78-10.45c3.52,0,6.61-.83,9.28-2.49,2.67-1.66,4.79-3.96,6.35-6.89,1.56-2.93,2.34-6.32,2.34-10.16,0-4.04-1.21-7.23-3.61-9.57-2.41-2.34-5.8-3.52-10.16-3.52-3.45,0-6.53.83-9.23,2.49-2.7,1.66-4.83,3.96-6.4,6.89s-2.34,6.32-2.34,10.16c0,4.1,1.2,7.31,3.61,9.62,2.41,2.31,5.8,3.47,10.16,3.47Z"/>
    <path d="m156.29,1031.93c-4.56,0-8.82-.55-12.8-1.66-3.97-1.11-7.03-2.44-9.18-4l5.08-9.38c2.15,1.5,4.84,2.72,8.06,3.66,3.22.95,6.59,1.42,10.11,1.42,4.04,0,7.02-.55,8.94-1.66,1.92-1.11,2.88-2.64,2.88-4.59,0-1.43-.68-2.51-2.05-3.22-1.37-.72-3.11-1.3-5.23-1.76-2.12-.45-4.4-.94-6.84-1.46-2.44-.52-4.72-1.24-6.84-2.15-2.12-.91-3.86-2.25-5.23-4-1.37-1.76-2.05-4.1-2.05-7.03,0-3.71,1.04-6.87,3.13-9.47,2.08-2.6,5-4.61,8.74-6.01,3.74-1.4,8.06-2.1,12.94-2.1,3.52,0,6.97.39,10.35,1.17,3.39.78,6.19,1.89,8.4,3.32l-4.49,9.38c-2.34-1.5-4.87-2.54-7.57-3.12-2.7-.59-5.32-.88-7.86-.88-3.97,0-6.92.6-8.84,1.81-1.92,1.21-2.88,2.72-2.88,4.54,0,1.43.68,2.54,2.05,3.32,1.37.78,3.11,1.42,5.23,1.91,2.12.49,4.4.98,6.84,1.46s4.72,1.19,6.84,2.1c2.12.91,3.86,2.23,5.23,3.96,1.37,1.73,2.05,4.02,2.05,6.89,0,3.78-1.06,6.98-3.17,9.62-2.12,2.64-5.06,4.62-8.84,5.96-3.78,1.33-8.11,2-12.99,2Z"/>
    <path d="m188.82,1031.24l10.35-52.16h12.21l-10.35,52.16h-12.21Zm19.24-60.76c-2.21,0-3.99-.67-5.32-2-1.34-1.33-2-2.95-2-4.83,0-2.21.76-4.07,2.3-5.57,1.53-1.5,3.53-2.25,6.01-2.25,2.15,0,3.91.63,5.27,1.9,1.37,1.27,2.05,2.82,2.05,4.64,0,2.41-.75,4.36-2.25,5.86-1.5,1.5-3.52,2.25-6.06,2.25Z"/>
    <path d="m218.51,989.24l1.95-9.77h34.68l-1.95,9.77h-34.68Zm18.07,42.69c-3.39,0-6.3-.73-8.74-2.2-2.44-1.47-4.2-3.55-5.27-6.25-1.07-2.7-1.25-5.91-.54-9.62l9.28-46.3h12.21l-9.28,46.2c-.39,2.41-.13,4.36.78,5.86.91,1.5,2.64,2.25,5.18,2.25,1.17,0,2.36-.18,3.57-.54,1.2-.36,2.3-.86,3.27-1.51l2.15,8.99c-1.82,1.17-3.84,1.99-6.06,2.44-2.21.46-4.4.68-6.54.68Z"/>
    <path d="m258.46,1031.24l10.35-52.16h12.21l-10.35,52.16h-12.21Zm19.24-60.76c-2.21,0-3.99-.67-5.32-2-1.34-1.33-2-2.95-2-4.83,0-2.21.76-4.07,2.3-5.57,1.53-1.5,3.53-2.25,6.01-2.25,2.15,0,3.91.63,5.27,1.9,1.37,1.27,2.05,2.82,2.05,4.64,0,2.41-.75,4.36-2.25,5.86-1.5,1.5-3.52,2.25-6.06,2.25Z"/>
    <path d="m300.66,1031.24l-12.01-52.16h12.01l10.35,46.01h-6.15l28.82-46.01h12.31l-32.72,52.16h-12.6Z"/>
    <path d="m367.86,1031.93c-5.21,0-9.74-.96-13.58-2.88-3.84-1.92-6.82-4.59-8.94-8.01-2.12-3.42-3.17-7.44-3.17-12.06,0-5.92,1.3-11.17,3.91-15.73,2.6-4.56,6.17-8.16,10.7-10.79,4.53-2.64,9.69-3.96,15.48-3.96,4.88,0,9.12.91,12.7,2.73,3.58,1.82,6.36,4.45,8.35,7.86,1.99,3.42,2.98,7.51,2.98,12.26,0,1.24-.07,2.51-.2,3.81-.13,1.3-.33,2.51-.59,3.61h-44.25l1.37-8.11h37.12l-4.98,2.73c.52-3.32.29-6.09-.68-8.3-.98-2.21-2.54-3.91-4.69-5.08s-4.72-1.76-7.72-1.76c-3.58,0-6.69.83-9.33,2.49-2.64,1.66-4.67,4-6.11,7.03-1.43,3.03-2.15,6.56-2.15,10.6s1.22,7.49,3.66,9.77c2.44,2.28,6.23,3.42,11.38,3.42,2.93,0,5.73-.47,8.4-1.42,2.67-.94,4.88-2.26,6.64-3.96l5.08,8.5c-2.73,2.41-5.98,4.22-9.72,5.42-3.75,1.2-7.64,1.81-11.67,1.81Z"/>
    <path d="m425.3,1050.19l14.16-71.11h11.62l-2.34,11.92-3.22,13.87-1.76,13.97-6.25,31.36h-12.21Zm35.36-18.27c-4.36,0-8.14-.8-11.33-2.39-3.19-1.6-5.6-3.97-7.23-7.13-1.63-3.16-2.38-7.08-2.25-11.77.13-6.51,1.3-12.18,3.52-17,2.21-4.82,5.32-8.55,9.33-11.18s8.77-3.96,14.31-3.96c4.3,0,8.17.9,11.62,2.69,3.45,1.79,6.2,4.4,8.25,7.82,2.05,3.42,3.08,7.54,3.08,12.36,0,4.43-.73,8.5-2.2,12.21s-3.53,6.94-6.2,9.67c-2.67,2.74-5.78,4.87-9.33,6.4-3.55,1.53-7.41,2.29-11.58,2.29Zm-.98-10.45c3.52,0,6.61-.83,9.28-2.49,2.67-1.66,4.79-3.96,6.35-6.89,1.56-2.93,2.34-6.32,2.34-10.16,0-4.04-1.21-7.23-3.61-9.57-2.41-2.34-5.8-3.52-10.16-3.52-3.45,0-6.53.83-9.23,2.49-2.7,1.66-4.83,3.96-6.4,6.89s-2.34,6.32-2.34,10.16c0,4.04,1.2,7.23,3.61,9.57,2.41,2.34,5.79,3.52,10.16,3.52Z"/>
    <path d="m534.9,978.5c4.49,0,8.29.91,11.38,2.73,3.09,1.82,5.29,4.51,6.59,8.06,1.3,3.55,1.43,7.9.39,13.04l-5.76,28.91h-12.21l5.67-28.62c.85-4.23.45-7.54-1.17-9.91-1.63-2.38-4.59-3.57-8.89-3.57s-8.21,1.24-11.14,3.71c-2.93,2.48-4.92,6.25-5.96,11.33l-5.47,27.06h-12.21l14.46-72.48h12.21l-7.03,35.17-2.54-4.69c2.47-3.71,5.58-6.43,9.33-8.16,3.74-1.72,7.86-2.59,12.36-2.59Z"/>
    <path d="m588.91,1031.93c-5.08,0-9.52-.96-13.33-2.88-3.81-1.92-6.76-4.59-8.84-8.01-2.08-3.42-3.13-7.44-3.13-12.06,0-5.86,1.33-11.09,4-15.68,2.67-4.59,6.33-8.21,10.99-10.84,4.66-2.64,9.98-3.96,15.97-3.96,5.14,0,9.62.93,13.43,2.78,3.81,1.86,6.76,4.49,8.84,7.91,2.08,3.42,3.13,7.47,3.13,12.16,0,5.8-1.34,11.01-4,15.63-2.67,4.62-6.33,8.27-10.99,10.94-4.66,2.67-10.01,4-16.07,4Zm.78-10.45c3.52,0,6.61-.83,9.28-2.49,2.67-1.66,4.79-3.96,6.35-6.89,1.56-2.93,2.34-6.32,2.34-10.16,0-4.04-1.21-7.23-3.61-9.57-2.41-2.34-5.8-3.52-10.16-3.52-3.45,0-6.53.83-9.23,2.49-2.7,1.66-4.83,3.96-6.4,6.89s-2.34,6.32-2.34,10.16c0,4.1,1.2,7.31,3.61,9.62,2.41,2.31,5.8,3.47,10.16,3.47Z"/>
    <path d="m627.6,989.24l1.95-9.77h34.68l-1.95,9.77h-34.68Zm18.07,42.69c-3.39,0-6.3-.73-8.74-2.2-2.44-1.47-4.2-3.55-5.27-6.25-1.07-2.7-1.25-5.91-.54-9.62l9.28-46.3h12.21l-9.28,46.2c-.39,2.41-.13,4.36.78,5.86.91,1.5,2.64,2.25,5.18,2.25,1.17,0,2.36-.18,3.57-.54,1.2-.36,2.3-.86,3.27-1.51l2.15,8.99c-1.82,1.17-3.84,1.99-6.06,2.44-2.21.46-4.4.68-6.54.68Z"/>
    <path d="m691.58,1031.93c-5.08,0-9.52-.96-13.33-2.88-3.81-1.92-6.76-4.59-8.84-8.01-2.08-3.42-3.13-7.44-3.13-12.06,0-5.86,1.33-11.09,4-15.68,2.67-4.59,6.33-8.21,10.99-10.84,4.66-2.64,9.98-3.96,15.97-3.96,5.14,0,9.62.93,13.43,2.78,3.81,1.86,6.76,4.49,8.84,7.91s3.13,7.47,3.13,12.16c0,5.8-1.34,11.01-4.01,15.63-2.67,4.62-6.33,8.27-10.99,10.94-4.66,2.67-10.01,4-16.07,4Zm.78-10.45c3.52,0,6.61-.83,9.28-2.49,2.67-1.66,4.79-3.96,6.35-6.89s2.34-6.32,2.34-10.16c0-4.04-1.21-7.23-3.61-9.57-2.41-2.34-5.8-3.52-10.16-3.52-3.45,0-6.53.83-9.23,2.49-2.7,1.66-4.83,3.96-6.4,6.89s-2.34,6.32-2.34,10.16c0,4.1,1.2,7.31,3.61,9.62,2.41,2.31,5.8,3.47,10.16,3.47Z"/>
  </g>
  <path d="m952.21,267.96c-4.28,31.01-3.94,63.63,7.35,93.22,12,31.46,35.61,55.28,65.9,69.61,17.54,8.29,36.17,13.76,54.83,18.91,6.21,1.71,8.86-7.93,2.66-9.64-30.48-8.4-62.09-17.86-85.78-39.89-22.34-20.78-33.84-49.81-36.69-79.81-1.57-16.54-.9-33.29,1.37-49.73.87-6.29-8.76-9.02-9.64-2.66h0Z"/>
  <path d="m1090.71,443.49c-1.97-6.89-4.93-13.42-8.89-19.39-3.54-5.34-12.21-.33-8.63,5.05s6.14,10.88,7.88,17c1.76,6.18,11.41,3.55,9.64-2.66h0Z"/>
  <path d="m1083.04,443.13c-6.34,4.33-12.97,8.14-19.91,11.45-5.81,2.77-.74,11.39,5.05,8.63,6.93-3.3,13.56-7.12,19.91-11.45,5.28-3.61.29-12.28-5.05-8.63h0Z"/>
  <path d="m810.55,790.79c29.74-59.91,26.68-134.04-18.37-185.58-11.37-13.01-25.12-23.92-40.43-31.94-5.7-2.98-10.76,5.64-5.05,8.63,54.46,28.53,80.8,91.26,71.97,150.81-2.73,18.43-8.47,36.35-16.75,53.03-2.85,5.75,5.77,10.82,8.63,5.05h0Z"/>
  <path d="m740.52,579.42c3.22,8.92,4.57,17.9,4.09,27.37-.33,6.43,9.67,6.41,10,0,.52-10.24-.96-20.38-4.45-30.03-2.17-6.01-11.83-3.42-9.64,2.66h0Z"/>
  <path d="m747.54,582.98c7.32-1.55,13.97-5.51,18.78-11.24,4.11-4.9-2.93-12.01-7.07-7.07-3.81,4.55-8.55,7.44-14.36,8.67-6.29,1.33-3.63,10.98,2.66,9.64h0Z"/>
  <g class="cls-1">
    <image width="662" height="754" transform="translate(5.62 25.79)" xlink:href="../dashboard/static/compiledHeadshots/Newsroom_hipkins-digs-deep-to-show-his-softer-sid_ODBB3KZ8PS.jpg"/>
  </g>
</svg>